<?xml version="1.0" encoding="utf-8"?>
<!-- Generator: Adobe Illustrator 23.0.0, SVG Export Plug-In . SVG Version: 6.00 Build 0)  -->
<svg version="1.1" id="Layer_1" xmlns="http://www.w3.org/2000/svg" xmlns:xlink="http://www.w3.org/1999/xlink" x="0px" y="0px"
	 viewBox="0 0 24 24" style="enable-background:new 0 0 24 24;" xml:space="preserve">
<style type="text/css">
	.st0{fill:#3F3F46;}
</style>
<path class="st0" d="M12,22.5c-0.4,0-0.8-0.1-1.1-0.2c-0.4-0.2-0.7-0.4-1-0.7l-4.2-4.2c-1.3-1.3-2.1-2.9-2.5-4.6
	C2.8,11,3,9.2,3.7,7.6c0.7-1.7,1.8-3,3.3-4c3-2,7-2,10,0c1.5,1,2.6,2.4,3.3,4c0.7,1.7,0.9,3.4,0.5,5.2c-0.3,1.8-1.2,3.3-2.5,4.6l0,0
	l-4.2,4.2c-0.3,0.3-0.6,0.5-1,0.7C12.8,22.4,12.4,22.5,12,22.5z M12,4c-1.4,0-2.7,0.4-3.9,1.2C7,6,6.1,7,5.5,8.3
	C5,9.6,4.9,11,5.1,12.4C5.4,13.7,6.1,15,7,16l4.2,4.2c0.1,0.1,0.2,0.2,0.3,0.2c0.2,0.1,0.5,0.1,0.8,0c0.1-0.1,0.2-0.1,0.3-0.2L17,16
	c1-1,1.6-2.2,1.9-3.6c0.3-1.4,0.1-2.8-0.4-4C17.9,7,17,6,15.9,5.2C14.7,4.4,13.4,4,12,4z M17.7,16.7L17.7,16.7L17.7,16.7z M12,15
	c-1.1,0-2.1-0.4-2.8-1.2C8.4,13.1,8,12.1,8,11s0.4-2.1,1.2-2.8C9.9,7.4,10.9,7,12,7c1.1,0,2.1,0.4,2.8,1.2C15.6,8.9,16,9.9,16,11
	s-0.4,2.1-1.2,2.8S13.1,15,12,15z M12,9c-0.5,0-1,0.2-1.4,0.6C10.2,10,10,10.5,10,11s0.2,1,0.6,1.4c0.7,0.7,2.1,0.7,2.8,0
	C13.8,12,14,11.5,14,11s-0.2-1-0.6-1.4C13,9.2,12.5,9,12,9z"/>
</svg>
